{"title":"Universal Horror(1998)MPEG-4[DaScubaDude]","uid":15247173,"size":949033404,"categoryP":"video","categoryS":"movies","magnet":"?xt=urn:btih:fd7b8600a4c9b121cdcc8e0a7260c83d460e5fd7&amp;dn=Universal+Horror%281998%29MPEG-4%5BDaScubaDude%5D&amp;tr=udp%3A%2F%2Ftracker.leechers-paradise.org%3A6969&amp;tr=udp%3A%2F%2Fzer0day.ch%3A1337&amp;tr=udp%3A%2F%2Fopen.demonii.com%3A1337&amp;tr=udp%3A%2F%2Ftracker.coppersurfer.tk%3A6969&amp;tr=udp%3A%2F%2Fexodus.desync.com%3A6969","seeders":0,"leechers":1,"uploader":"dascuba","files":1,"time":1468013383,"description":"Universal Horror (1998)\r\n1h 35min | Documentary, Horror | TV Movie 8 October 1998\r\nA documentary examining the early days of horror films, particularly those crafted at Universal Studios during the 1930s.\r\nDirector: Kevin Brownlow\r\nStars: Kenneth Branagh, Ray Bradbury, Nina Foch |\r\n\r\nGeneral\r\nComplete name                            : Universal HorrorTHE_WOLF_MAN_Title1.mp4\r\nFormat                                   : MPEG-4\r\nFormat profile                           : Base Media\r\nCodec ID                                 : isom (isom/iso2/avc1/mp41)\r\nFile size                                : 905 MiB\r\nDuration                                 : 1h 35mn\r\nOverall bit rate                         : 1 328 Kbps\r\nMovie name                               : THE_WOLF_MAN\r\nGenre                                    : Horror\r\nWriting application                      : Lavf54.6.100\r\n\r\nVideo\r\nID                                       : 1\r\nFormat                                   : AVC\r\nFormat/Info                              : Advanced Video Codec\r\nFormat profile                           :   \r\nFormat settings, CABAC                   : No\r\nFormat settings, ReFrames                : 6 frames\r\nCodec ID                                 : avc1\r\nCodec ID/Info                            : Advanced Video Coding\r\nDuration                                 : 1h 35mn\r\nBit rate                                 : 1 193 Kbps\r\nWidth                                    : 720 pixels\r\nHeight                                   : 540 pixels\r\nDisplay aspect ratio                     : 4:3\r\nFrame rate mode                          : Constant\r\nFrame rate                               : 29.970 (30000/1001) fps\r\nColor space                              : YUV\r\nChroma subsampling                       : 4:2:0\r\nBit depth                                : 8 bits\r\nScan type                                : Progressive\r\nBits/(Pixel*Frame)                       : 0.102\r\nStream size                              : 813 MiB (90%)\r\n\r\nAudio\r\nID                                       : 2\r\nFormat                                   : AAC\r\nFormat/Info                              : Advanced Audio Codec\r\nFormat profile                           : LC\r\nCodec ID                                 : 40\r\nDuration                                 : 1h 35mn\r\nBit rate mode                            : Constant\r\nBit rate                                 : 128 Kbps\r\nChannel(s)                               : 2 channels\r\nChannel positions                        : Front: L R\r\nSampling rate                            : 44.1 KHz\r\nFrame rate                               : 43.066 fps (1024 spf)\r\nCompression mode                         : Lossy\r\nStream size                              : 87.3 MiB (10%)\r\nDefault                                  : Yes\r\nAlternate group                          : 1","torrent":{"xt":"urn:btih:fd7b8600a4c9b121cdcc8e0a7260c83d460e5fd7","amp;dn":"Universal+Horror%281998%29MPEG-4%5BDaScubaDude%5D","amp;tr":["udp%3A%2F%2Ftracker.leechers-paradise.org%3A6969","udp%3A%2F%2Fzer0day.ch%3A1337","udp%3A%2F%2Fopen.demonii.com%3A1337","udp%3A%2F%2Ftracker.coppersurfer.tk%3A6969","udp%3A%2F%2Fexodus.desync.com%3A6969"],"infoHash":"fd7b8600a4c9b121cdcc8e0a7260c83d460e5fd7","infoHashBuffer":{"type":"Buffer","data":[253,123,134,0,164,201,177,33,205,204,142,10,114,96,200,61,70,14,95,215]},"announce":[],"urlList":[]}}